<svg xmlns="http://www.w3.org/2000/svg" xmlns:xlink="http://www.w3.org/1999/xlink" xmlns:s="https://github.com/nturley/netlistsvg" width="487" height="235">
  <style>svg {
    stroke:#000;
    fill:none;
  }
  text {
    fill:#000;
    stroke:none;
    font-size:10px;
    font-weight: bold;
    font-family: &quot;Courier New&quot;, monospace;
  }
  .nodelabel {
    text-anchor: middle;
  }
  .inputPortLabel {
    text-anchor: end;
  }
  .splitjoinBody {
    fill:#000;
  }</style>
  <g s:type="gt" transform="translate(385,193)" s:width="25" s:height="25" id="cell_$2">
    <s:alias val="$gt"/>
    <circle r="12.5" cx="12.5" cy="12.5" class="cell_$2"/>
    <line x1="7.5" x2="17.5" y1="7.5" y2="12.5" class="cell_$2"/>
    <line x1="7.5" x2="17.5" y1="17.5" y2="12.5" class="cell_$2"/>
    <g s:x="3" s:y="5" s:pid="A"/>
    <g s:x="3" s:y="20" s:pid="B"/>
    <g s:x="25" s:y="12.5" s:pid="Y"/>
  </g>
  <g s:type="gt" transform="translate(104.33333333333333,148)" s:width="25" s:height="25" id="cell_$4">
    <s:alias val="$gt"/>
    <circle r="12.5" cx="12.5" cy="12.5" class="cell_$4"/>
    <line x1="7.5" x2="17.5" y1="7.5" y2="12.5" class="cell_$4"/>
    <line x1="7.5" x2="17.5" y1="17.5" y2="12.5" class="cell_$4"/>
    <g s:x="3" s:y="5" s:pid="A"/>
    <g s:x="3" s:y="20" s:pid="B"/>
    <g s:x="25" s:y="12.5" s:pid="Y"/>
  </g>
  <g s:type="add" transform="translate(104.33333333333333,22)" s:width="25" s:height="25" id="cell_$7">
    <s:alias val="$add"/>
    <circle r="12.5" cx="12.5" cy="12.5" class="cell_$7"/>
    <line x1="7.5" x2="17.5" y1="12.5" y2="12.5" class="cell_$7"/>
    <line x1="12.5" x2="12.5" y1="7.5" y2="17.5" class="cell_$7"/>
    <g s:x="3" s:y="5" s:pid="A"/>
    <g s:x="3" s:y="20" s:pid="B"/>
    <g s:x="25" s:y="12.5" s:pid="Y"/>
  </g>
  <g s:type="dff" transform="translate(302,133)" s:width="30" s:height="40" id="cell_$procdff$6">
    <s:alias val="$dff"/>
    <s:alias val="$_DFF_"/>
    <s:alias val="$_DFF_P_"/>
    <rect width="30" height="40" x="0" y="0" class="cell_$procdff$6"/>
    <path d="M0,35 L5,30 L0,25" class="cell_$procdff$6"/>
    <g s:x="30" s:y="10" s:pid="Q"/>
    <g s:x="0" s:y="30" s:pid="CLK"/>
    <g s:x="0" s:y="30" s:pid="C"/>
    <g s:x="0" s:y="10" s:pid="D"/>
  </g>
  <g s:type="mux" transform="translate(169.33333333333334,24.5)" s:width="20" s:height="40" id="cell_$procmux$2">
    <s:alias val="$pmux"/>
    <s:alias val="$mux"/>
    <s:alias val="$_MUX_"/>
    <path d="M0,0 L20,10 L20,30 L0,40 Z" class="cell_$procmux$2"/>
    <g s:x="0" s:y="10" s:pid="A"/>
    <g s:x="0" s:y="30" s:pid="B"/>
    <g s:x="10" s:y="35" s:pid="S"/>
    <g s:x="20" s:y="20" s:pid="Y"/>
  </g>
  <g s:type="mux" transform="translate(234.33333333333334,72)" s:width="20" s:height="40" id="cell_$procmux$4">
    <s:alias val="$pmux"/>
    <s:alias val="$mux"/>
    <s:alias val="$_MUX_"/>
    <path d="M0,0 L20,10 L20,30 L0,40 Z" class="cell_$procmux$4"/>
    <g s:x="0" s:y="10" s:pid="A"/>
    <g s:x="0" s:y="30" s:pid="B"/>
    <g s:x="10" s:y="35" s:pid="S"/>
    <g s:x="20" s:y="20" s:pid="Y"/>
  </g>
  <g s:type="inputExt" transform="translate(231,153)" s:width="30" s:height="20" id="cell_clk">
    <text x="15" y="-4" class="nodelabel cell_clk" s:attribute="ref">clk</text>
    <s:alias val="$_inputExt_"/>
    <path d="M0,0 L0,20 L15,20 L30,10 L15,0 Z" class="cell_clk"/>
    <g s:x="28" s:y="10" s:pid="Y"/>
  </g>
  <g s:type="inputExt" transform="translate(166,123)" s:width="30" s:height="20" id="cell_rst">
    <text x="15" y="-4" class="nodelabel cell_rst" s:attribute="ref">rst</text>
    <s:alias val="$_inputExt_"/>
    <path d="M0,0 L0,20 L15,20 L30,10 L15,0 Z" class="cell_rst"/>
    <g s:x="28" s:y="10" s:pid="Y"/>
  </g>
  <g s:type="outputExt" transform="translate(445,195.5)" s:width="30" s:height="20" id="cell_led">
    <text x="15" y="-4" class="nodelabel cell_led" s:attribute="ref">led</text>
    <s:alias val="$_outputExt_"/>
    <path d="M30,0 L30,20 L15,20 L0,10 L15,0 Z" class="cell_led"/>
    <g s:x="0" s:y="10" s:pid="A"/>
  </g>
  <g s:type="constant" transform="translate(296,203)" s:width="30" s:height="20" id="cell_10111110101111000010000000">
    <text x="15" y="-4" class="nodelabel cell_10111110101111000010000000" s:attribute="ref">0x2faf080</text>
    <s:alias val="$_constant_"/>
    <rect width="30" height="20" class="cell_10111110101111000010000000"/>
    <g s:x="30" s:y="10" s:pid="Y"/>
  </g>
  <g s:type="constant" transform="translate(12,158)" s:width="30" s:height="20" id="cell_101111101011110000100000000">
    <text x="15" y="-4" class="nodelabel cell_101111101011110000100000000" s:attribute="ref">0x5f5e100</text>
    <s:alias val="$_constant_"/>
    <rect width="30" height="20" class="cell_101111101011110000100000000"/>
    <g s:x="30" s:y="10" s:pid="Y"/>
  </g>
  <g s:type="constant" transform="translate(12,32)" s:width="30" s:height="20" id="cell_1">
    <text x="15" y="-4" class="nodelabel cell_1" s:attribute="ref">1</text>
    <s:alias val="$_constant_"/>
    <rect width="30" height="20" class="cell_1"/>
    <g s:x="30" s:y="10" s:pid="Y"/>
  </g>
  <g s:type="constant" transform="translate(101,92)" s:width="30" s:height="20" id="cell_000000000000000000000000000">
    <text x="15" y="-4" class="nodelabel cell_000000000000000000000000000" s:attribute="ref">0x0</text>
    <s:alias val="$_constant_"/>
    <rect width="30" height="20" class="cell_000000000000000000000000000"/>
    <g s:x="30" s:y="10" s:pid="Y"/>
  </g>
  <line x1="332" x2="360" y1="143" y2="143" class="net_5,6,7,8,9,10,11,12,13,14,15,16,17,18,19,20,21,22,23,24,25,26,27,28,29,30,31"/>
  <line x1="360" x2="360" y1="143" y2="198" class="net_5,6,7,8,9,10,11,12,13,14,15,16,17,18,19,20,21,22,23,24,25,26,27,28,29,30,31"/>
  <line x1="360" x2="388" y1="198" y2="198" class="net_5,6,7,8,9,10,11,12,13,14,15,16,17,18,19,20,21,22,23,24,25,26,27,28,29,30,31"/>
  <line x1="332" x2="360" y1="143" y2="143" class="net_5,6,7,8,9,10,11,12,13,14,15,16,17,18,19,20,21,22,23,24,25,26,27,28,29,30,31"/>
  <line x1="360" x2="360" y1="143" y2="183" class="net_5,6,7,8,9,10,11,12,13,14,15,16,17,18,19,20,21,22,23,24,25,26,27,28,29,30,31"/>
  <line x1="360" x2="76" y1="183" y2="183" class="net_5,6,7,8,9,10,11,12,13,14,15,16,17,18,19,20,21,22,23,24,25,26,27,28,29,30,31"/>
  <line x1="76" x2="76" y1="183" y2="153" class="net_5,6,7,8,9,10,11,12,13,14,15,16,17,18,19,20,21,22,23,24,25,26,27,28,29,30,31"/>
  <circle cx="360" cy="183" r="2" style="fill:#000" class="net_5,6,7,8,9,10,11,12,13,14,15,16,17,18,19,20,21,22,23,24,25,26,27,28,29,30,31"/>
  <line x1="76" x2="107.33333333333333" y1="153" y2="153" class="net_5,6,7,8,9,10,11,12,13,14,15,16,17,18,19,20,21,22,23,24,25,26,27,28,29,30,31"/>
  <line x1="332" x2="360" y1="143" y2="143" class="net_5,6,7,8,9,10,11,12,13,14,15,16,17,18,19,20,21,22,23,24,25,26,27,28,29,30,31"/>
  <line x1="360" x2="360" y1="143" y2="12" class="net_5,6,7,8,9,10,11,12,13,14,15,16,17,18,19,20,21,22,23,24,25,26,27,28,29,30,31"/>
  <line x1="360" x2="76" y1="12" y2="12" class="net_5,6,7,8,9,10,11,12,13,14,15,16,17,18,19,20,21,22,23,24,25,26,27,28,29,30,31"/>
  <line x1="76" x2="76" y1="12" y2="27" class="net_5,6,7,8,9,10,11,12,13,14,15,16,17,18,19,20,21,22,23,24,25,26,27,28,29,30,31"/>
  <circle cx="360" cy="143" r="2" style="fill:#000" class="net_5,6,7,8,9,10,11,12,13,14,15,16,17,18,19,20,21,22,23,24,25,26,27,28,29,30,31"/>
  <line x1="76" x2="107.33333333333333" y1="27" y2="27" class="net_5,6,7,8,9,10,11,12,13,14,15,16,17,18,19,20,21,22,23,24,25,26,27,28,29,30,31"/>
  <line x1="326" x2="388" y1="213" y2="213" class="net_114,115,116,117,118,119,120,121,122,123,124,125,126,127,128,129,130,131,132,133,134,135,136,137,138,139"/>
  <line x1="42" x2="107.33333333333333" y1="168" y2="168" class="net_140,141,142,143,144,145,146,147,148,149,150,151,152,153,154,155,156,157,158,159,160,161,162,163,164,165,166"/>
  <line x1="42" x2="107.33333333333333" y1="42" y2="42" class="net_167"/>
  <line x1="259" x2="302" y1="163" y2="163" class="net_2"/>
  <line x1="254.33333333333334" x2="271" y1="92" y2="92" class="net_60,61,62,63,64,65,66,67,68,69,70,71,72,73,74,75,76,77,78,79,80,81,82,83,84,85,86"/>
  <line x1="271" x2="271" y1="92" y2="143" class="net_60,61,62,63,64,65,66,67,68,69,70,71,72,73,74,75,76,77,78,79,80,81,82,83,84,85,86"/>
  <line x1="271" x2="302" y1="143" y2="143" class="net_60,61,62,63,64,65,66,67,68,69,70,71,72,73,74,75,76,77,78,79,80,81,82,83,84,85,86"/>
  <line x1="129.33333333333331" x2="169.33333333333334" y1="34.5" y2="34.5" class="net_33,34,35,36,37,38,39,40,41,42,43,44,45,46,47,48,49,50,51,52,53,54,55,56,57,58,59"/>
  <line x1="131" x2="141" y1="102" y2="102" class="net_168,169,170,171,172,173,174,175,176,177,178,179,180,181,182,183,184,185,186,187,188,189,190,191,192,193,194"/>
  <line x1="141" x2="141" y1="102" y2="54.5" class="net_168,169,170,171,172,173,174,175,176,177,178,179,180,181,182,183,184,185,186,187,188,189,190,191,192,193,194"/>
  <circle cx="141" cy="102" r="2" style="fill:#000" class="net_168,169,170,171,172,173,174,175,176,177,178,179,180,181,182,183,184,185,186,187,188,189,190,191,192,193,194"/>
  <line x1="141" x2="169.33333333333334" y1="54.5" y2="54.5" class="net_168,169,170,171,172,173,174,175,176,177,178,179,180,181,182,183,184,185,186,187,188,189,190,191,192,193,194"/>
  <line x1="131" x2="234.33333333333334" y1="102" y2="102" class="net_168,169,170,171,172,173,174,175,176,177,178,179,180,181,182,183,184,185,186,187,188,189,190,191,192,193,194"/>
  <line x1="129.33333333333331" x2="151" y1="160.5" y2="160.5" class="net_32"/>
  <line x1="151" x2="151" y1="160.5" y2="92" class="net_32"/>
  <line x1="151" x2="179.33333333333334" y1="92" y2="92" class="net_32"/>
  <line x1="179.33333333333334" x2="179.33333333333334" y1="92" y2="59.5" class="net_32"/>
  <line x1="189.33333333333334" x2="206" y1="44.5" y2="44.5" class="net_87,88,89,90,91,92,93,94,95,96,97,98,99,100,101,102,103,104,105,106,107,108,109,110,111,112,113"/>
  <line x1="206" x2="206" y1="44.5" y2="82" class="net_87,88,89,90,91,92,93,94,95,96,97,98,99,100,101,102,103,104,105,106,107,108,109,110,111,112,113"/>
  <line x1="206" x2="234.33333333333334" y1="82" y2="82" class="net_87,88,89,90,91,92,93,94,95,96,97,98,99,100,101,102,103,104,105,106,107,108,109,110,111,112,113"/>
  <line x1="194" x2="244.33333333333334" y1="133" y2="133" class="net_3"/>
  <line x1="244.33333333333334" x2="244.33333333333334" y1="133" y2="107" class="net_3"/>
  <line x1="410" x2="445" y1="205.5" y2="205.5" class="net_4"/>
</svg>